<mxfile host="app.diagrams.net" modified="2023-06-29T16:30:56.563Z" agent="Mozilla/5.0 (Windows NT 10.0; Win64; x64) AppleWebKit/537.36 (KHTML, like Gecko) Chrome/113.0.0.0 Safari/537.36" etag="28hD91ymLK5lS7i2vhcW" version="21.3.2" type="device">
  <diagram id="xrxMtvPM4jD022jB3djA" name="ER модель">
    <mxGraphModel dx="1615" dy="845" grid="1" gridSize="10" guides="1" tooltips="1" connect="1" arrows="1" fold="1" page="1" pageScale="1" pageWidth="827" pageHeight="1169" math="0" shadow="0">
      <root>
        <mxCell id="0" />
        <mxCell id="1" parent="0" />
        <mxCell id="iiYwfUWWMAuivROCwT6N-1" style="edgeStyle=orthogonalEdgeStyle;rounded=0;orthogonalLoop=1;jettySize=auto;html=1;entryX=0;entryY=0.25;entryDx=0;entryDy=0;fontSize=11;startArrow=ERmandOne;startFill=0;endArrow=ERzeroToMany;endFill=0;exitX=1;exitY=0.144;exitDx=0;exitDy=0;exitPerimeter=0;" parent="1" source="iiYwfUWWMAuivROCwT6N-3" target="iiYwfUWWMAuivROCwT6N-5" edge="1">
          <mxGeometry relative="1" as="geometry" />
        </mxCell>
        <mxCell id="iiYwfUWWMAuivROCwT6N-2" value="Клиника" style="swimlane;childLayout=stackLayout;horizontal=1;startSize=30;horizontalStack=0;rounded=1;fontSize=14;fontStyle=0;strokeWidth=2;resizeParent=0;resizeLast=1;shadow=0;dashed=0;align=center;" parent="1" vertex="1">
          <mxGeometry x="60" y="40" width="160" height="130" as="geometry" />
        </mxCell>
        <mxCell id="iiYwfUWWMAuivROCwT6N-3" value="*Номер клиники&#xa;Индекс&#xa;Город&#xa;Улица&#xa;Дом&#xa;Номер телефона" style="align=left;strokeColor=none;fillColor=none;spacingLeft=4;fontSize=12;verticalAlign=top;resizable=0;rotatable=0;part=1;" parent="iiYwfUWWMAuivROCwT6N-2" vertex="1">
          <mxGeometry y="30" width="160" height="100" as="geometry" />
        </mxCell>
        <mxCell id="hWpqF_BLJY4iKwspj8iQ-27" value="" style="edgeStyle=entityRelationEdgeStyle;fontSize=12;html=1;endArrow=ERmandOne;startArrow=ERmandOne;rounded=0;exitX=1;exitY=0;exitDx=0;exitDy=0;" edge="1" parent="iiYwfUWWMAuivROCwT6N-2" source="hWpqF_BLJY4iKwspj8iQ-24">
          <mxGeometry width="100" height="100" relative="1" as="geometry">
            <mxPoint x="117" y="410" as="sourcePoint" />
            <mxPoint x="-10" y="90" as="targetPoint" />
          </mxGeometry>
        </mxCell>
        <mxCell id="iiYwfUWWMAuivROCwT6N-4" value="Врач" style="swimlane;childLayout=stackLayout;horizontal=1;startSize=30;horizontalStack=0;rounded=1;fontSize=14;fontStyle=0;strokeWidth=2;resizeParent=0;resizeLast=1;shadow=0;dashed=0;align=center;" parent="1" vertex="1">
          <mxGeometry x="340" y="50" width="160" height="140" as="geometry" />
        </mxCell>
        <mxCell id="iiYwfUWWMAuivROCwT6N-5" value="*Табельный номер&#xa;Фамилия&#xa;Имя&#xa;Отчество &#xa;Стаж работы&#xa;Образование&#xa;Специализация" style="align=left;strokeColor=none;fillColor=none;spacingLeft=4;fontSize=12;verticalAlign=top;resizable=0;rotatable=0;part=1;" parent="iiYwfUWWMAuivROCwT6N-4" vertex="1">
          <mxGeometry y="30" width="160" height="110" as="geometry" />
        </mxCell>
        <mxCell id="iiYwfUWWMAuivROCwT6N-6" value="Пациент" style="swimlane;childLayout=stackLayout;horizontal=1;startSize=30;horizontalStack=0;rounded=1;fontSize=14;fontStyle=0;strokeWidth=2;resizeParent=0;resizeLast=1;shadow=0;dashed=0;align=center;" parent="1" vertex="1">
          <mxGeometry x="920" y="30" width="160" height="190" as="geometry" />
        </mxCell>
        <mxCell id="iiYwfUWWMAuivROCwT6N-7" value="*Номер карты&#xa;Фамилия&#xa;Имя &#xa;Отчество&#xa;Дата рождения&#xa;Номер телефона&#xa;Серия и номер паспорта&#xa;Страховой полис&#xa;Электронная почта&#xa;&#xa;" style="align=left;strokeColor=none;fillColor=none;spacingLeft=4;fontSize=12;verticalAlign=top;resizable=0;rotatable=0;part=1;" parent="iiYwfUWWMAuivROCwT6N-6" vertex="1">
          <mxGeometry y="30" width="160" height="160" as="geometry" />
        </mxCell>
        <mxCell id="iiYwfUWWMAuivROCwT6N-8" value="Запись" style="swimlane;childLayout=stackLayout;horizontal=1;startSize=30;horizontalStack=0;rounded=1;fontSize=14;fontStyle=0;strokeWidth=2;resizeParent=0;resizeLast=1;shadow=0;dashed=0;align=center;" parent="1" vertex="1">
          <mxGeometry x="640" y="90" width="160" height="100" as="geometry" />
        </mxCell>
        <mxCell id="iiYwfUWWMAuivROCwT6N-9" value="*Номер&#xa;Дата&#xa;Время&#xa;Номер кабинет" style="align=left;strokeColor=none;fillColor=none;spacingLeft=4;fontSize=12;verticalAlign=top;resizable=0;rotatable=0;part=1;" parent="iiYwfUWWMAuivROCwT6N-8" vertex="1">
          <mxGeometry y="30" width="160" height="70" as="geometry" />
        </mxCell>
        <mxCell id="iiYwfUWWMAuivROCwT6N-10" style="edgeStyle=orthogonalEdgeStyle;rounded=0;orthogonalLoop=1;jettySize=auto;html=1;entryX=1.001;entryY=0.205;entryDx=0;entryDy=0;fontSize=11;startArrow=ERmandOne;startFill=0;endArrow=ERzeroToMany;endFill=0;exitX=-0.008;exitY=0.289;exitDx=0;exitDy=0;entryPerimeter=0;exitPerimeter=0;" parent="1" source="iiYwfUWWMAuivROCwT6N-7" target="iiYwfUWWMAuivROCwT6N-9" edge="1">
          <mxGeometry relative="1" as="geometry" />
        </mxCell>
        <mxCell id="iiYwfUWWMAuivROCwT6N-11" style="edgeStyle=orthogonalEdgeStyle;rounded=0;orthogonalLoop=1;jettySize=auto;html=1;entryX=0;entryY=0.25;entryDx=0;entryDy=0;fontSize=11;startArrow=ERmandOne;startFill=0;endArrow=ERzeroToMany;endFill=0;" parent="1" target="iiYwfUWWMAuivROCwT6N-9" edge="1">
          <mxGeometry relative="1" as="geometry">
            <mxPoint x="500" y="90" as="sourcePoint" />
          </mxGeometry>
        </mxCell>
        <mxCell id="iiYwfUWWMAuivROCwT6N-12" value="&lt;font style=&quot;font-size: 12px;&quot;&gt;Работает&lt;/font&gt;" style="text;html=1;strokeColor=none;fillColor=none;align=center;verticalAlign=middle;whiteSpace=wrap;rounded=0;fontSize=20;" parent="1" vertex="1">
          <mxGeometry x="250" y="50" width="60" height="30" as="geometry" />
        </mxCell>
        <mxCell id="iiYwfUWWMAuivROCwT6N-13" value="&lt;font style=&quot;font-size: 12px;&quot;&gt;Принимает&lt;/font&gt;" style="text;html=1;strokeColor=none;fillColor=none;align=center;verticalAlign=middle;whiteSpace=wrap;rounded=0;fontSize=20;" parent="1" vertex="1">
          <mxGeometry x="540" y="60" width="60" height="30" as="geometry" />
        </mxCell>
        <mxCell id="iiYwfUWWMAuivROCwT6N-14" value="&lt;font style=&quot;font-size: 12px;&quot;&gt;Приходит&lt;/font&gt;" style="text;html=1;strokeColor=none;fillColor=none;align=center;verticalAlign=middle;whiteSpace=wrap;rounded=0;fontSize=20;" parent="1" vertex="1">
          <mxGeometry x="827" y="60" width="60" height="30" as="geometry" />
        </mxCell>
        <mxCell id="hWpqF_BLJY4iKwspj8iQ-9" value="Результат" style="swimlane;childLayout=stackLayout;horizontal=1;startSize=30;horizontalStack=0;rounded=1;fontSize=14;fontStyle=0;strokeWidth=2;resizeParent=0;resizeLast=1;shadow=0;dashed=0;align=center;" vertex="1" parent="1">
          <mxGeometry x="414" y="270" width="160" height="170" as="geometry" />
        </mxCell>
        <mxCell id="hWpqF_BLJY4iKwspj8iQ-10" value="*номер&#xa;номер карты&#xa;табельный номер врача&#xa;дата процедуры&#xa;табельный номер врача&#xa;нормы здорового человека&#xa;результат пациента&#xa;" style="align=left;strokeColor=none;fillColor=none;spacingLeft=4;fontSize=12;verticalAlign=top;resizable=0;rotatable=0;part=1;" vertex="1" parent="hWpqF_BLJY4iKwspj8iQ-9">
          <mxGeometry y="30" width="160" height="140" as="geometry" />
        </mxCell>
        <mxCell id="hWpqF_BLJY4iKwspj8iQ-13" value="" style="edgeStyle=entityRelationEdgeStyle;fontSize=12;html=1;endArrow=ERzeroToMany;startArrow=ERmandOne;rounded=0;exitX=-0.013;exitY=0.676;exitDx=0;exitDy=0;exitPerimeter=0;entryX=1;entryY=0.5;entryDx=0;entryDy=0;" edge="1" parent="1" source="iiYwfUWWMAuivROCwT6N-7" target="hWpqF_BLJY4iKwspj8iQ-10">
          <mxGeometry width="100" height="100" relative="1" as="geometry">
            <mxPoint x="650" y="340" as="sourcePoint" />
            <mxPoint x="827" y="380" as="targetPoint" />
          </mxGeometry>
        </mxCell>
        <mxCell id="hWpqF_BLJY4iKwspj8iQ-16" value="" style="edgeStyle=entityRelationEdgeStyle;fontSize=12;html=1;endArrow=ERzeroToMany;startArrow=ERmandOne;rounded=0;exitX=1.017;exitY=0.62;exitDx=0;exitDy=0;exitPerimeter=0;" edge="1" parent="1" source="iiYwfUWWMAuivROCwT6N-5">
          <mxGeometry width="100" height="100" relative="1" as="geometry">
            <mxPoint x="310" y="290" as="sourcePoint" />
            <mxPoint x="410" y="360" as="targetPoint" />
          </mxGeometry>
        </mxCell>
        <mxCell id="hWpqF_BLJY4iKwspj8iQ-17" value="принадлежит" style="text;html=1;align=center;verticalAlign=middle;resizable=0;points=[];autosize=1;strokeColor=none;fillColor=none;" vertex="1" parent="1">
          <mxGeometry x="727" y="240" width="100" height="30" as="geometry" />
        </mxCell>
        <mxCell id="hWpqF_BLJY4iKwspj8iQ-21" value="Кабинет" style="swimlane;childLayout=stackLayout;horizontal=1;startSize=30;horizontalStack=0;rounded=1;fontSize=14;fontStyle=0;strokeWidth=2;resizeParent=0;resizeLast=1;shadow=0;dashed=0;align=center;" vertex="1" parent="1">
          <mxGeometry x="60" y="510" width="157" height="170" as="geometry" />
        </mxCell>
        <mxCell id="hWpqF_BLJY4iKwspj8iQ-22" value="*номер кабинета&#xa;тип кабинета" style="align=left;strokeColor=none;fillColor=none;spacingLeft=4;fontSize=12;verticalAlign=top;resizable=0;rotatable=0;part=1;" vertex="1" parent="hWpqF_BLJY4iKwspj8iQ-21">
          <mxGeometry y="30" width="157" height="140" as="geometry" />
        </mxCell>
        <mxCell id="hWpqF_BLJY4iKwspj8iQ-23" value="Расписание" style="swimlane;childLayout=stackLayout;horizontal=1;startSize=30;horizontalStack=0;rounded=1;fontSize=14;fontStyle=0;strokeWidth=2;resizeParent=0;resizeLast=1;shadow=0;dashed=0;align=center;" vertex="1" parent="1">
          <mxGeometry x="63" y="230" width="157" height="170" as="geometry" />
        </mxCell>
        <mxCell id="hWpqF_BLJY4iKwspj8iQ-24" value="*день недели&#xa;время начала работы&#xa;время окончания работы&#xa;номер клиники&#xa;номер кабинета" style="align=left;strokeColor=none;fillColor=none;spacingLeft=4;fontSize=12;verticalAlign=top;resizable=0;rotatable=0;part=1;" vertex="1" parent="hWpqF_BLJY4iKwspj8iQ-23">
          <mxGeometry y="30" width="157" height="140" as="geometry" />
        </mxCell>
        <mxCell id="hWpqF_BLJY4iKwspj8iQ-26" value="" style="edgeStyle=entityRelationEdgeStyle;fontSize=12;html=1;endArrow=ERmandOne;startArrow=ERmandOne;rounded=0;exitX=1;exitY=0.5;exitDx=0;exitDy=0;" edge="1" parent="1" source="hWpqF_BLJY4iKwspj8iQ-22" target="hWpqF_BLJY4iKwspj8iQ-24">
          <mxGeometry width="100" height="100" relative="1" as="geometry">
            <mxPoint x="230" y="610" as="sourcePoint" />
            <mxPoint x="220" y="330" as="targetPoint" />
          </mxGeometry>
        </mxCell>
        <mxCell id="hWpqF_BLJY4iKwspj8iQ-28" value="принадлежит" style="text;html=1;align=center;verticalAlign=middle;resizable=0;points=[];autosize=1;strokeColor=none;fillColor=none;" vertex="1" parent="1">
          <mxGeometry x="100" y="170" width="100" height="30" as="geometry" />
        </mxCell>
        <mxCell id="hWpqF_BLJY4iKwspj8iQ-29" style="edgeStyle=orthogonalEdgeStyle;rounded=0;orthogonalLoop=1;jettySize=auto;html=1;exitX=1;exitY=0.5;exitDx=0;exitDy=0;" edge="1" parent="1" source="hWpqF_BLJY4iKwspj8iQ-24">
          <mxGeometry relative="1" as="geometry">
            <mxPoint x="220" y="330" as="targetPoint" />
          </mxGeometry>
        </mxCell>
        <mxCell id="hWpqF_BLJY4iKwspj8iQ-30" value="принадлежит" style="text;html=1;align=center;verticalAlign=middle;resizable=0;points=[];autosize=1;strokeColor=none;fillColor=none;" vertex="1" parent="1">
          <mxGeometry x="217" y="450" width="100" height="30" as="geometry" />
        </mxCell>
      </root>
    </mxGraphModel>
  </diagram>
</mxfile>
